<?xml version="1.0" encoding="UTF-8" standalone="no"?>
<svg
   xmlns:dc="http://purl.org/dc/elements/1.1/"
   xmlns:cc="http://creativecommons.org/ns#"
   xmlns:rdf="http://www.w3.org/1999/02/22-rdf-syntax-ns#"
   xmlns:svg="http://www.w3.org/2000/svg"
   xmlns="http://www.w3.org/2000/svg"
   xmlns:sodipodi="http://sodipodi.sourceforge.net/DTD/sodipodi-0.dtd"
   xmlns:inkscape="http://www.inkscape.org/namespaces/inkscape"
   width="34.035454mm"
   height="34.035454mm"
   viewBox="0 0 34.035454 34.035454"
   version="1.1"
   id="svg8"
   inkscape:version="1.0.2 (e86c8708, 2021-01-15)"
   sodipodi:docname="combinow-icon.svg">
  <defs
     id="defs2">
    <rect
       x="84.666664"
       y="44.601189"
       width="111.125"
       height="70.303574"
       id="rect847" />
    <rect
       x="108.85714"
       y="67.279762"
       width="58.208332"
       height="35.529762"
       id="rect841" />
    <rect
       x="109.6131"
       y="121.70833"
       width="77.10714"
       height="105.07738"
       id="rect835" />
  </defs>
  <sodipodi:namedview
     id="base"
     pagecolor="#ffffff"
     bordercolor="#666666"
     borderopacity="1.0"
     inkscape:pageopacity="0.0"
     inkscape:pageshadow="2"
     inkscape:zoom="0.88620827"
     inkscape:cx="38.268579"
     inkscape:cy="76.887615"
     inkscape:document-units="mm"
     inkscape:current-layer="layer1"
     inkscape:document-rotation="0"
     showgrid="false"
     fit-margin-top="0"
     fit-margin-left="0"
     fit-margin-right="0"
     fit-margin-bottom="0"
     inkscape:window-width="1252"
     inkscape:window-height="766"
     inkscape:window-x="0"
     inkscape:window-y="25"
     inkscape:window-maximized="0" />
  <metadata
     id="metadata5">
    <rdf:RDF>
      <cc:Work
         rdf:about="">
        <dc:format>image/svg+xml</dc:format>
        <dc:type
           rdf:resource="http://purl.org/dc/dcmitype/StillImage" />
        <dc:title></dc:title>
      </cc:Work>
    </rdf:RDF>
  </metadata>
  <g
     inkscape:label="Layer 1"
     inkscape:groupmode="layer"
     id="layer1"
     transform="translate(-87.982269,-131.48227)">
    <rect
       style="fill:#ffffff;fill-opacity:1;stroke-width:4.99999;paint-order:stroke fill markers"
       id="rect871"
       width="34.035454"
       height="34.035454"
       x="87.982269"
       y="131.48227" />
    <g
       id="g869">
      <path
         d="m 99.104177,158.87661 h -1.555465 q -1.202259,-2.1407 -1.867917,-4.67158 -0.665657,-2.53088 -0.665657,-5.70503 0,-3.17415 0.665657,-5.70503 0.665658,-2.53088 1.867917,-4.67158 h 1.555465 v 0.10546 q -0.550186,0.76981 -1.052826,1.78216 -0.495847,1.00181 -0.923769,2.34107 -0.407546,1.29707 -0.665657,2.85778 -0.251321,1.56071 -0.251321,3.29015 0,1.80325 0.244528,3.30069 0.251319,1.49743 0.67245,2.84724 0.407546,1.29707 0.930562,2.34106 0.523016,1.05453 1.046033,1.78216 z"
         style="font-style:normal;font-weight:normal;font-size:10.5833px;line-height:1.25;font-family:sans-serif;white-space:pre;fill:#bb0044;fill-opacity:1;stroke:none;stroke-width:1.63776"
         id="path851" />
      <path
         d="m 114.98487,148.5 q 0,3.17415 -0.66566,5.70503 -0.66566,2.53088 -1.86792,4.67158 h -1.55546 v -0.10546 q 0.52301,-0.72763 1.04603,-1.78216 0.52981,-1.04399 0.93056,-2.34107 0.42113,-1.3498 0.66566,-2.84724 0.25132,-1.49744 0.25132,-3.30069 0,-1.72943 -0.25132,-3.29014 -0.25132,-1.56071 -0.66566,-2.85779 -0.42792,-1.33926 -0.93056,-2.34106 -0.49585,-1.01236 -1.04603,-1.78217 v -0.10544 h 1.55546 q 1.20226,2.1407 1.86792,4.67158 0.66566,2.53088 0.66566,5.70503 z"
         style="font-style:normal;font-weight:normal;font-size:10.5833px;line-height:1.25;font-family:sans-serif;white-space:pre;fill:#bb0044;fill-opacity:1;stroke:none;stroke-width:1.63776"
         id="path853" />
      <path
         d="m 107.20658,144.85165 h -0.97152 v -3.28661 q 0,-0.39791 -0.0465,-0.74414 -0.0465,-0.3514 -0.17053,-0.54777 -0.12919,-0.21704 -0.37207,-0.32039 -0.24288,-0.10852 -0.63045,-0.10852 -0.39791,0 -0.83199,0.19637 -0.43408,0.19637 -0.83198,0.50126 v 4.3098 h -0.97152 v -5.77224 h 0.97152 v 0.64079 q 0.45475,-0.37724 0.9405,-0.58911 0.48576,-0.21188 0.99736,-0.21188 0.93534,0 1.42626,0.56328 0.49093,0.56328 0.49093,1.62264 z"
         style="font-style:normal;font-weight:normal;font-size:10.5833px;line-height:1.25;font-family:sans-serif;white-space:pre;fill:#ff0088;fill-opacity:1;stroke:none"
         id="path856" />
      <path
         d="m 107.61999,158.08078 h -1.28158 l -2.31509,-2.52697 -0.63045,0.59944 v 1.92753 h -0.97152 v -8.04083 h 0.97152 v 5.15729 l 2.80602,-2.8887 h 1.22473 l -2.682,2.66649 z"
         style="font-style:normal;font-weight:normal;font-size:10.5833px;line-height:1.25;font-family:sans-serif;white-space:pre;fill:#ff0088;fill-opacity:1;stroke:none"
         id="path858" />
    </g>
  </g>
</svg>
